<svg width="1920" height="1080" viewBox="0 0 1920 1080" fill="none" xmlns="http://www.w3.org/2000/svg">
<g clip-path="url(#clip0_707_22)">
<rect width="1920" height="1080" fill="white"/>
<rect width="1920" height="701.656" fill="#FDE9FF"/>
<rect width="1920" height="378.344" transform="translate(0 701.656)" fill="#FDE9FF"/>
<path d="M0 890.828L53.3333 859.26C106.667 828.165 213.333 764.319 320 752.141C426.667 739.49 533.333 777.325 640 821.426C746.667 865.999 853.333 915.657 960 947.58C1066.67 979.502 1173.33 991.326 1280 985.414C1386.67 979.502 1493.33 953.491 1600 928.662C1706.67 903.834 1813.33 877.822 1866.67 865.645L1920 852.994V1080H1866.67C1813.33 1080 1706.67 1080 1600 1080C1493.33 1080 1386.67 1080 1280 1080C1173.33 1080 1066.67 1080 960 1080C853.333 1080 746.667 1080 640 1080C533.333 1080 426.667 1080 320 1080C213.333 1080 106.667 1080 53.3333 1080H0L0 890.828Z" fill="white"/>
<path d="M1 219.272L54.3333 234.935C107.667 250.597 214.333 281.922 321 250.597C427.667 219.272 534.333 125.298 641 125.298C747.667 125.298 854.333 219.272 961 240.123C1067.67 261.365 1174.33 208.504 1281 161.811C1387.67 114.531 1494.33 73.4171 1601 83.4997C1707.67 93.9738 1814.33 156.623 1867.67 187.948L1921 219.272V0H1867.67C1814.33 0 1707.67 0 1601 0C1494.33 0 1387.67 0 1281 0C1174.33 0 1067.67 0 961 0C854.333 0 747.667 0 641 0C534.333 0 427.667 0 321 0C214.333 0 107.667 0 54.3333 0H1V219.272Z" fill="#7E439F"/>
<path d="M0 163.624L53.3333 175.311C106.667 186.998 213.333 210.373 320 186.998C426.667 163.624 533.333 93.4992 640 93.4992C746.667 93.4992 853.333 163.624 960 179.182C1066.67 195.034 1173.33 155.589 1280 120.745C1386.67 85.4641 1493.33 54.7847 1600 62.3085C1706.67 70.1244 1813.33 116.874 1866.67 140.249L1920 163.624V0H1866.67C1813.33 0 1706.67 0 1600 0C1493.33 0 1386.67 0 1280 0C1173.33 0 1066.67 0 960 0C853.333 0 746.667 0 640 0C533.333 0 426.667 0 320 0C213.333 0 106.667 0 53.3333 0H0V163.624Z" fill="#52246B"/>
</g>
<defs>
<clipPath id="clip0_707_22">
<rect width="1920" height="1080" fill="white"/>
</clipPath>
</defs>
</svg>
