<svg width="220" height="58" viewBox="0 0 220 58" fill="none" xmlns="http://www.w3.org/2000/svg">
<g filter="url(#filter0_d_707_31)">
<path fill-rule="evenodd" clip-rule="evenodd" d="M43.5533 33.6735V17.3243H38.4878V13.2654H52.6887V17.3243H47.623V33.6735H43.5533Z" fill="white"/>
<path fill-rule="evenodd" clip-rule="evenodd" d="M23.2222 32.2419H19.2152V12.2449H20.2799L30.3955 23.7501V12.6831H34.4305V32.653H33.3658L23.2222 21.5858V32.2419Z" fill="white"/>
<path fill-rule="evenodd" clip-rule="evenodd" d="M56.7464 33.6735H60.8038V13.2654H56.7464V33.6735Z" fill="white"/>
<path fill-rule="evenodd" clip-rule="evenodd" d="M75.7172 24.3445H79.8151V32.0596C79.3371 32.1925 78.7882 32.2864 78.1824 32.3381C77.5426 32.3929 76.9171 32.4204 76.323 32.4204C74.989 32.4204 73.8542 32.3008 72.9503 32.0651C72.0569 31.8326 71.3322 31.4157 70.796 30.826C70.2573 30.2342 69.8635 29.4321 69.6258 28.4416C69.3852 27.4427 69.2633 26.1599 69.2633 24.6287V22.531C69.2633 20.9449 69.3852 19.6152 69.6258 18.5792C69.8638 17.5528 70.262 16.7325 70.8093 16.1409C71.3552 15.5512 72.0898 15.1295 72.9932 14.8875C73.9069 14.6427 75.0558 14.5183 76.4075 14.5183C77.146 14.5183 77.8352 14.5692 78.4554 14.6688C79.075 14.7688 79.6228 14.8932 80.084 15.038L80.1854 15.0699L80.5243 13.9376L80.4306 13.9057C79.9953 13.7573 79.4045 13.612 78.6743 13.4742C77.941 13.3356 77.197 13.2654 76.4635 13.2654C74.736 13.2654 73.3064 13.4625 72.2143 13.851C71.115 14.242 70.2304 14.833 69.5848 15.6073C68.9396 16.3808 68.4932 17.3522 68.2571 18.4946C68.0227 19.6258 67.9038 20.9468 67.9038 22.4205V24.6287C67.9038 25.9715 67.9844 27.2113 68.1432 28.314C68.304 29.4296 68.6789 30.3967 69.2575 31.1881C69.8378 31.9831 70.7043 32.6033 71.833 33.0318C72.9542 33.4576 74.4838 33.6735 76.3792 33.6735C76.6796 33.6735 77.0465 33.6548 77.4702 33.618C77.8973 33.5804 78.324 33.5339 78.7388 33.4794C79.1598 33.4244 79.5782 33.3545 79.9825 33.2712C80.389 33.1876 80.7399 33.0882 81.025 32.9763L81.0904 32.9507V23.0913H75.986L75.7172 24.3445Z" fill="white"/>
<path fill-rule="evenodd" clip-rule="evenodd" d="M91.6855 23.9149L85.5747 13.2654H84.134L91.0233 25.0868V33.6735H92.3183V25.0591L99.3493 13.2654H97.907L91.6855 23.9149Z" fill="white"/>
<path fill-rule="evenodd" clip-rule="evenodd" d="M110.549 26.8108L103.691 13.2654H102.393V33.6735H103.647V16.0729L109.921 28.3121H111.123L117.368 15.8272V33.6735H118.622V13.2654H117.295L110.549 26.8108Z" fill="white"/>
<path fill-rule="evenodd" clip-rule="evenodd" d="M136.691 31.4663L126.031 13.2654H124.708V33.6735H125.912V15.5286L136.544 33.6237L136.573 33.6735H137.895V13.2654H136.691V31.4663Z" fill="white"/>
<path fill-rule="evenodd" clip-rule="evenodd" d="M154.008 25.8894H146.015L149.998 14.6972L154.008 25.8894ZM150.845 13.2654H149.261L141.952 33.6735H143.252L145.552 27.1771H154.471L156.799 33.6735H158.182L150.87 13.3339L150.845 13.2654Z" fill="white"/>
<path fill-rule="evenodd" clip-rule="evenodd" d="M172.483 24.5242C172.136 24.0818 171.663 23.7011 171.078 23.393C170.494 23.0856 169.749 22.8637 168.863 22.7336L166.227 22.3472C165.485 22.2381 164.869 22.0957 164.394 21.9244C163.926 21.7556 163.546 21.5229 163.266 21.2315C162.986 20.9424 162.787 20.5724 162.674 20.1316C162.557 19.6835 162.498 19.1164 162.498 18.4461C162.498 17.7102 162.615 17.0837 162.846 16.5844C163.074 16.0892 163.413 15.6852 163.854 15.3841C164.298 15.0802 164.858 14.8581 165.519 14.7233C166.186 14.5874 166.955 14.5183 167.805 14.5183C168.764 14.5183 169.626 14.5874 170.367 14.7236C171.108 14.86 171.796 15.0399 172.41 15.2577L172.509 15.2929L172.873 14.1616L172.782 14.1273C172.196 13.9068 171.513 13.7059 170.751 13.53C169.987 13.3544 169.07 13.2654 168.024 13.2654C165.798 13.2654 164.092 13.704 162.953 14.5692C161.806 15.4415 161.225 16.6901 161.225 18.2803V18.5566C161.225 19.3718 161.309 20.0824 161.475 20.6682C161.644 21.2618 161.92 21.7635 162.296 22.1599C162.67 22.5555 163.158 22.8746 163.746 23.109C164.326 23.3407 165.041 23.5147 165.869 23.6257L168.423 23.9846C169.231 24.0929 169.886 24.2707 170.367 24.513C170.845 24.7529 171.216 25.0493 171.471 25.3935C171.725 25.7382 171.895 26.1416 171.974 26.5922C172.055 27.0531 172.095 27.5628 172.095 28.1065C172.095 28.7907 172 29.4109 171.813 29.9497C171.627 30.4827 171.328 30.9374 170.922 31.3011C170.514 31.6659 169.969 31.9464 169.301 32.1345C168.627 32.3242 167.782 32.4204 166.789 32.4204C165.701 32.4204 164.764 32.3651 164.003 32.2559C163.242 32.1465 162.443 31.9619 161.631 31.7076L161.523 31.6738L161.292 32.8372L161.374 32.8671C162.035 33.1073 162.817 33.3038 163.698 33.4514C164.578 33.5987 165.554 33.6735 166.597 33.6735C167.791 33.6735 168.83 33.542 169.687 33.2826C170.547 33.0226 171.262 32.6488 171.811 32.1721C172.361 31.6934 172.768 31.1133 173.02 30.4473C173.27 29.786 173.397 29.0354 173.397 28.2168V27.8582C173.397 27.2296 173.331 26.623 173.202 26.0551C173.071 25.4817 172.829 24.9666 172.483 24.5242Z" fill="white"/>
<path fill-rule="evenodd" clip-rule="evenodd" d="M178.469 33.6735H179.484V13.2654H178.469V33.6735Z" fill="white"/>
<path fill-rule="evenodd" clip-rule="evenodd" d="M197.486 14.5249L197.741 13.2654H186.583V33.6735H197.486L197.741 32.4141H187.818V23.6595H196.554L196.81 22.4H187.818V14.5249H197.486Z" fill="white"/>
<path fill-rule="evenodd" clip-rule="evenodd" d="M201.048 13.2654L200.785 14.5249H207.7V33.6735H208.974V14.5249H215.736L216 13.2654H201.048Z" fill="white"/>
<path fill-rule="evenodd" clip-rule="evenodd" d="M25.3014 4.00763V0.000244141H4V22.4392C4 37.7408 11.6339 42.6333 24.09 49.3486L25.3014 50.0002V45.4618L25.1518 45.3807C13.8471 39.2539 7.94838 35.4511 7.94838 22.4392V4.00737L25.3014 4.00763Z" fill="white"/>
</g>
<defs>
<filter id="filter0_d_707_31" x="0" y="0.000244141" width="220" height="58" filterUnits="userSpaceOnUse" color-interpolation-filters="sRGB">
<feFlood flood-opacity="0" result="BackgroundImageFix"/>
<feColorMatrix in="SourceAlpha" type="matrix" values="0 0 0 0 0 0 0 0 0 0 0 0 0 0 0 0 0 0 127 0" result="hardAlpha"/>
<feOffset dy="4"/>
<feGaussianBlur stdDeviation="2"/>
<feComposite in2="hardAlpha" operator="out"/>
<feColorMatrix type="matrix" values="0 0 0 0 0 0 0 0 0 0 0 0 0 0 0 0 0 0 0.25 0"/>
<feBlend mode="normal" in2="BackgroundImageFix" result="effect1_dropShadow_707_31"/>
<feBlend mode="normal" in="SourceGraphic" in2="effect1_dropShadow_707_31" result="shape"/>
</filter>
</defs>
</svg>
