<svg width="1920" height="197" viewBox="0 0 1920 197" fill="none" xmlns="http://www.w3.org/2000/svg">
<path d="M0 163.624L53.3333 175.311C106.667 186.998 213.333 210.373 320 186.998C426.667 163.624 533.333 93.4992 640 93.4992C746.667 93.4992 853.333 163.624 960 179.182C1066.67 195.034 1173.33 155.589 1280 120.745C1386.67 85.4641 1493.33 54.7847 1600 62.3085C1706.67 70.1244 1813.33 116.874 1866.67 140.249L1920 163.624V0H1866.67C1813.33 0 1706.67 0 1600 0C1493.33 0 1386.67 0 1280 0C1173.33 0 1066.67 0 960 0C853.333 0 746.667 0 640 0C533.333 0 426.667 0 320 0C213.333 0 106.667 0 53.3333 0H0V163.624Z" fill="#52246B"/>
</svg>
