<svg width="1919" height="264" viewBox="0 0 1919 264" fill="none" xmlns="http://www.w3.org/2000/svg">
<path d="M0 219.272L53.3333 234.935C106.667 250.597 213.333 281.922 320 250.597C426.667 219.272 533.333 125.298 640 125.298C746.667 125.298 853.333 219.272 960 240.123C1066.67 261.365 1173.33 208.504 1280 161.811C1386.67 114.531 1493.33 73.4171 1600 83.4997C1706.67 93.9738 1813.33 156.623 1866.67 187.948L1920 219.272V0H1866.67C1813.33 0 1706.67 0 1600 0C1493.33 0 1386.67 0 1280 0C1173.33 0 1066.67 0 960 0C853.333 0 746.667 0 640 0C533.333 0 426.667 0 320 0C213.333 0 106.667 0 53.3333 0H0V219.272Z" fill="#7E439F"/>
</svg>
