<svg width="1920" height="378" viewBox="0 0 1920 378" fill="none" xmlns="http://www.w3.org/2000/svg">
<rect width="1920" height="378" fill="#FDE9FF"/>
<path d="M0 189L53.3333 157.461C106.667 126.394 213.333 62.6062 320 50.4394C426.667 37.8 533.333 75.6 640 119.661C746.667 164.194 853.333 213.806 960 245.7C1066.67 277.594 1173.33 289.406 1280 283.5C1386.67 277.594 1493.33 251.606 1600 226.8C1706.67 201.994 1813.33 176.006 1866.67 163.839L1920 151.2V378H1866.67C1813.33 378 1706.67 378 1600 378C1493.33 378 1386.67 378 1280 378C1173.33 378 1066.67 378 960 378C853.333 378 746.667 378 640 378C533.333 378 426.667 378 320 378C213.333 378 106.667 378 53.3333 378H0L0 189Z" fill="white"/>
</svg>
